{"title":"Chinjeolhan geumjassi","uid":6496656,"size":477076231,"categoryP":"video","categoryS":"movies","magnet":"?xt=urn:btih:358ab172221cb68a71f55b63388ccae0462d9109&amp;dn=Chinjeolhan+geumjassi&amp;tr=udp%3A%2F%2Ftracker.openbittorrent.com%3A80&amp;tr=udp%3A%2F%2Fopen.demonii.com%3A1337&amp;tr=udp%3A%2F%2Ftracker.coppersurfer.tk%3A6969&amp;tr=udp%3A%2F%2Fexodus.desync.com%3A6969","seeders":0,"leechers":1,"uploader":"vishu_ka","files":5,"time":1309098079,"description":"SYMPATHY FOR LADY VENGEANCE DVD-RIP\n\nSIZE - 450MB\n\nENGLISH SUBTITLES INCLUDED\n\n2 CD\n\n__________________________________NFO___________________________________________\n\n\nCD 1 SIZE-227MB\n\nVideo\nID : 0\nFormat : MPEG-4 Visual\nFormat profile : Advanced Simple@L5\nFormat settings, BVOP : 2\nFormat settings, QPel : Yes\nFormat settings, GMC : 3 warppoints\nFormat settings, Matrix : Default (H.263)\nCodec ID : DX50\nCodec ID/Hint : DivX 5\nDuration : 57mn 24s\nBit rate : 446 Kbps\nWidth : 640 pixels\nHeight : 272 pixels\nDisplay aspect ratio : 2.35:1\nFrame rate : 23.976 fps\nColor space : YUV\nChroma subsampling : 4:2:0\nBit depth : 8 bits\nScan type : Progressive\nCompression mode : Lossy\nBits/(Pixel*Frame) : 0.107\nStream size : 183 MiB (80%)\nWriting library : XviD 1.0.3 (UTC 2004-12-20)\n\nAudio\nID : 1\nFormat : MPEG Audio\nFormat version : Version 1\nFormat profile : Layer 3\nCodec ID : 55\nCodec ID/Hint : MP3\nDuration : 57mn 23s\nBit rate mode : Constant\nBit rate : 96.0 Kbps\nChannel(s) : 2 channels\nSampling rate : 48.0 KHz\nCompression mode : Lossy\nDelay relative to video : 24ms\nStream size : 39.4 MiB (17%)\nAlignment : Split accross interleaves\nInterleave, duration : 24 ms (0.58 video frame)\n\n\nCD 2 SIZE-226MB\n\nVideo\nID : 0\nFormat : MPEG-4 Visual\nFormat profile : Advanced Simple@L5\nFormat settings, BVOP : 2\nFormat settings, QPel : Yes\nFormat settings, GMC : 3 warppoints\nFormat settings, Matrix : Default (H.263)\nCodec ID : DX50\nCodec ID/Hint : DivX 5\nDuration : 57mn 45s\nBit rate : 440 Kbps\nWidth : 640 pixels\nHeight : 272 pixels\nDisplay aspect ratio : 2.35:1\nFrame rate : 23.976 fps\nColor space : YUV\nChroma subsampling : 4:2:0\nBit depth : 8 bits\nScan type : Progressive\nCompression mode : Lossy\nBits/(Pixel*Frame) : 0.105\nStream size : 182 MiB (80%)\nWriting library : XviD 1.0.3 (UTC 2004-12-20)\n\nAudio\nID : 1\nFormat : MPEG Audio\nFormat version : Version 1\nFormat profile : Layer 3\nCodec ID : 55\nCodec ID/Hint : MP3\nDuration : 57mn 44s\nBit rate mode : Constant\nBit rate : 96.0 Kbps\nChannel(s) : 2 channels\nSampling rate : 48.0 KHz\nCompression mode : Lossy\nDelay relative to video : 24ms\nStream size : 39.6 MiB (17%)\nAlignment : Split accross interleaves\nInterleave, duration : 24 ms (0.58 video frame)\n\n\nTOTAL MOVIE DURATION - 115MIN 9 SEC\n\n_______________________________________________________________________________\n\nENJOY QUALITY RELEASE\n\nPLEASE SEED!!!","torrent":{"xt":"urn:btih:358ab172221cb68a71f55b63388ccae0462d9109","amp;dn":"Chinjeolhan+geumjassi","amp;tr":["udp%3A%2F%2Ftracker.openbittorrent.com%3A80","udp%3A%2F%2Fopen.demonii.com%3A1337","udp%3A%2F%2Ftracker.coppersurfer.tk%3A6969","udp%3A%2F%2Fexodus.desync.com%3A6969"],"infoHash":"358ab172221cb68a71f55b63388ccae0462d9109","infoHashBuffer":{"type":"Buffer","data":[53,138,177,114,34,28,182,138,113,245,91,99,56,140,202,224,70,45,145,9]},"announce":[],"urlList":[]}}